<svg xmlns="http://www.w3.org/2000/svg" version="1.1" xmlns:xlink="http://www.w3.org/1999/xlink" xmlns:svgjs="http://svgjs.dev/svgjs" width="1000" height="1000" viewBox="0 0 1000 1000"><rect width="1000" height="1000" fill="#000000"></rect><g transform="matrix(0.7,0,0,0.7,149.57575757575756,282.1265587044535)"><svg viewBox="0 0 396 247" data-background-color="#ffffff" preserveAspectRatio="xMidYMid meet" height="623" width="1000" xmlns="http://www.w3.org/2000/svg" xmlns:xlink="http://www.w3.org/1999/xlink"><g id="tight-bounds" transform="matrix(1,0,0,1,0.2400000000000091,-0.09999999999999432)"><svg viewBox="0 0 395.52 247.2" height="247.2" width="395.52"><g><svg></svg></g><g><svg viewBox="0 0 395.52 247.2" height="247.2" width="395.52"><g transform="matrix(1,0,0,1,75.54432,87.08291824539097)"><svg viewBox="0 0 244.43135999999998 73.03416350921805" height="73.03416350921805" width="244.43135999999998"><g><svg viewBox="0 0 244.43135999999998 73.03416350921805" height="73.03416350921805" width="244.43135999999998"><g><svg viewBox="0 0 244.43135999999998 73.03416350921805" height="73.03416350921805" width="244.43135999999998"><g><svg viewBox="0 0 244.43135999999998 73.03416350921805" height="73.03416350921805" width="244.43135999999998"><g id="textblocktransform"><svg viewBox="0 0 244.43135999999998 73.03416350921805" height="73.03416350921805" width="244.43135999999998" id="textblock"><g><svg viewBox="0 0 244.43135999999998 73.03416350921805" height="73.03416350921805" width="244.43135999999998"><g transform="matrix(1,0,0,1,0,0)"><svg width="244.43135999999998" viewBox="1.399999976158142 -37 157.29000854492188 47" height="73.03416350921805" data-palette-color="#77d4fc"><path d="M4.9-34.9L21.1-34.9 21.1-9.05Q21.1-6.85 20.38-5.05 19.65-3.25 18.32-2 17-0.75 15.15-0.08 13.3 0.6 11.1 0.6L11.1 0.6Q7.05 0.6 4.58-1.58 2.1-3.75 1.4-7.35L1.4-7.35 5.2-8.25Q5.7-6 7.1-4.58 8.5-3.15 11.2-3.15L11.2-3.15Q13.9-3.15 15.4-4.8 16.9-6.45 16.9-9.8L16.9-9.8 16.9-31.2 4.9-31.2 4.9-34.9ZM39.5 0.6L39.5 0.6Q36.9 0.6 34.75-0.35 32.6-1.3 31.07-3.08 29.55-4.85 28.7-7.33 27.85-9.8 27.85-12.9L27.85-12.9Q27.85-15.95 28.7-18.45 29.55-20.95 31.07-22.73 32.6-24.5 34.75-25.45 36.9-26.4 39.5-26.4L39.5-26.4Q42.1-26.4 44.22-25.45 46.35-24.5 47.9-22.73 49.45-20.95 50.3-18.45 51.15-15.95 51.15-12.9L51.15-12.9Q51.15-9.8 50.3-7.33 49.45-4.85 47.9-3.08 46.35-1.3 44.22-0.35 42.1 0.6 39.5 0.6ZM39.5-2.95L39.5-2.95Q42.75-2.95 44.8-4.95 46.85-6.95 46.85-11.05L46.85-11.05 46.85-14.75Q46.85-18.85 44.8-20.85 42.75-22.85 39.5-22.85L39.5-22.85Q36.25-22.85 34.2-20.85 32.15-18.85 32.15-14.75L32.15-14.75 32.15-11.05Q32.15-6.95 34.2-4.95 36.25-2.95 39.5-2.95ZM65.5 0.6L65.5 0.6Q61.9 0.6 59.47-0.78 57.05-2.15 55.3-4.45L55.3-4.45 58.15-6.75Q59.65-4.85 61.5-3.83 63.35-2.8 65.8-2.8L65.8-2.8Q68.34-2.8 69.77-3.9 71.2-5 71.2-7L71.2-7Q71.2-8.5 70.22-9.58 69.25-10.65 66.7-11.05L66.7-11.05 64.65-11.35Q62.85-11.6 61.35-12.13 59.85-12.65 58.72-13.53 57.6-14.4 56.97-15.7 56.35-17 56.35-18.8L56.35-18.8Q56.35-20.7 57.05-22.13 57.75-23.55 58.97-24.5 60.2-25.45 61.9-25.93 63.6-26.4 65.55-26.4L65.55-26.4Q68.7-26.4 70.82-25.3 72.95-24.2 74.55-22.25L74.55-22.25 71.9-19.85Q71.05-21.05 69.4-22.03 67.75-23 65.25-23L65.25-23Q62.75-23 61.47-21.93 60.2-20.85 60.2-19L60.2-19Q60.2-17.1 61.47-16.25 62.75-15.4 65.15-15L65.15-15 67.15-14.7Q71.45-14.05 73.25-12.23 75.05-10.4 75.05-7.45L75.05-7.45Q75.05-3.7 72.5-1.55 69.95 0.6 65.5 0.6ZM91.79 0.6L91.79 0.6Q89.14 0.6 87.02-0.35 84.89-1.3 83.37-3.08 81.84-4.85 81.02-7.33 80.19-9.8 80.19-12.9L80.19-12.9Q80.19-15.95 81.02-18.45 81.84-20.95 83.37-22.73 84.89-24.5 87.02-25.45 89.14-26.4 91.79-26.4L91.79-26.4Q94.39-26.4 96.44-25.45 98.49-24.5 99.94-22.83 101.39-21.15 102.17-18.85 102.94-16.55 102.94-13.8L102.94-13.8 102.94-11.9 84.39-11.9 84.39-10.7Q84.39-9.05 84.92-7.63 85.44-6.2 86.42-5.15 87.39-4.1 88.82-3.5 90.24-2.9 92.04-2.9L92.04-2.9Q94.49-2.9 96.32-4.05 98.14-5.2 99.14-7.35L99.14-7.35 101.99-5.3Q100.74-2.65 98.09-1.03 95.44 0.6 91.79 0.6ZM91.79-23.05L91.79-23.05Q90.14-23.05 88.79-22.48 87.44-21.9 86.47-20.85 85.49-19.8 84.94-18.38 84.39-16.95 84.39-15.25L84.39-15.25 84.39-14.9 98.64-14.9 98.64-15.45Q98.64-18.9 96.77-20.98 94.89-23.05 91.79-23.05ZM109.54 10L109.54-25.8 113.54-25.8 113.54-21.6 113.74-21.6Q114.74-24.05 116.67-25.23 118.59-26.4 121.29-26.4L121.29-26.4Q123.69-26.4 125.64-25.45 127.59-24.5 128.97-22.75 130.34-21 131.06-18.5 131.79-16 131.79-12.9L131.79-12.9Q131.79-9.8 131.06-7.3 130.34-4.8 128.97-3.05 127.59-1.3 125.64-0.35 123.69 0.6 121.29 0.6L121.29 0.6Q116.04 0.6 113.74-4.2L113.74-4.2 113.54-4.2 113.54 10 109.54 10ZM120.19-3L120.19-3Q123.59-3 125.54-5.13 127.49-7.25 127.49-10.7L127.49-10.7 127.49-15.1Q127.49-18.55 125.54-20.68 123.59-22.8 120.19-22.8L120.19-22.8Q118.84-22.8 117.62-22.43 116.39-22.05 115.49-21.4 114.59-20.75 114.07-19.83 113.54-18.9 113.54-17.85L113.54-17.85 113.54-8.25Q113.54-7 114.07-6.03 114.59-5.05 115.49-4.38 116.39-3.7 117.62-3.35 118.84-3 120.19-3ZM138.54 0L138.54-37 142.54-37 142.54-21.6 142.74-21.6Q143.69-23.8 145.41-25.1 147.14-26.4 150.04-26.4L150.04-26.4Q154.04-26.4 156.36-23.83 158.69-21.25 158.69-16.55L158.69-16.55 158.69 0 154.69 0 154.69-15.85Q154.69-22.8 148.84-22.8L148.84-22.8Q147.64-22.8 146.51-22.5 145.39-22.2 144.49-21.6 143.59-21 143.06-20.08 142.54-19.15 142.54-17.9L142.54-17.9 142.54 0 138.54 0Z" opacity="1" transform="matrix(1,0,0,1,0,0)" fill="#ffffff" class="undefined-text-0" data-fill-palette-color="primary" id="text-0"></path></svg></g></svg></g></svg></g></svg></g></svg></g></svg></g></svg></g><g><path d="M245.816 0c68.262 0 123.6 55.338 123.6 123.6 0 68.262-55.338 123.6-123.6 123.6-52.333 0-97.069-32.524-115.099-78.462l3.546 0c17.853 44.078 61.072 75.169 111.553 75.169 66.444 0 120.307-53.863 120.307-120.307 0-66.444-53.863-120.307-120.307-120.307-50.481 0-93.7 31.091-111.553 75.169l-3.546 0c18.029-45.938 62.766-78.462 115.099-78.462z" fill="#ffffff" stroke="transparent" data-fill-palette-color="tertiary"></path></g></svg></g><defs></defs></svg><rect width="395.52" height="247.2" fill="none" stroke="none" visibility="hidden"></rect></g></svg></g></svg>